<svg width="41" height="41" viewBox="0 0 41 41" fill="none" xmlns="http://www.w3.org/2000/svg">
<rect width="40" height="40" transform="translate(0.662598 0.567871)" fill="#F9FAFC"/>
<mask id="mask0" mask-type="alpha" maskUnits="userSpaceOnUse" x="0" y="0" width="41" height="41">
<path d="M40.6626 0.567871H0.662598V40.5679H40.6626V0.567871Z" fill="white"/>
</mask>
<g mask="url(#mask0)">
<path d="M40.6626 0.567871H0.662598V40.5679H40.6626V0.567871Z" fill="#F9FAFC"/>
<mask id="mask1" mask-type="alpha" maskUnits="userSpaceOnUse" x="1" y="1" width="39" height="39">
<path d="M23.1302 36.221C32.0233 34.6331 37.9452 26.1365 36.3573 17.2434C34.7693 8.35036 26.2728 2.42839 17.3797 4.01635C8.48661 5.60431 2.56464 14.1009 4.1526 22.9939C5.74055 31.887 14.2371 37.809 23.1302 36.221Z" fill="#C4C4C4"/>
</mask>
<g mask="url(#mask1)">
<path d="M2.61613 12.3819C-5.73639 15.4299 -2.39158 21.379 -4.3141 21.0795L-14.8462 20.2905L-11.7184 5.42843C-9.00303 2.96603 -3.50409 -1.98082 -3.23176 -2.069C-2.95944 -2.15717 7.19944 -5.39828 12.2449 -7.00781L33.8073 -7.24902L41.8719 -0.97667C40.4933 2.73019 37.2862 10.9659 35.4863 14.2535C34.2638 12.5931 21.671 5.42843 2.61613 12.3819Z" fill="#BAD9E3"/>
</g>
<mask id="mask2" mask-type="alpha" maskUnits="userSpaceOnUse" x="1" y="1" width="39" height="39">
<path d="M23.1302 36.221C32.0233 34.6331 37.9452 26.1365 36.3573 17.2434C34.7693 8.35036 26.2728 2.42839 17.3797 4.01635C8.48661 5.60431 2.56464 14.1009 4.1526 22.9939C5.74055 31.887 14.2371 37.809 23.1302 36.221Z" fill="#C4C4C4"/>
</mask>
<g mask="url(#mask2)">
<path d="M22.4645 27.5987L19.5303 41.841L25.2035 44.3454L55.6255 36.3002C55.1148 31.2826 48.2901 25.7811 48.1245 25.5293C47.9589 25.2775 41.5069 17.5487 39.6443 15.1846L39.5538 18.6177L39.7452 19.689L39.3678 21.5152L38.8303 22.1639L35.2598 20.7412C33.4354 20.7488 29.6616 20.7961 29.1622 20.9255C28.6626 21.0549 24.4889 25.4282 22.4645 27.5987Z" fill="#BAD9E3"/>
</g>
<mask id="mask3" mask-type="alpha" maskUnits="userSpaceOnUse" x="-1" y="-1" width="42" height="42">
<path d="M23.3923 37.6894C33.0964 35.9566 39.5585 26.6852 37.8257 16.981C36.0929 7.27686 26.8214 0.814792 17.1173 2.54758C7.41315 4.28036 0.951085 13.5518 2.68387 23.256C4.41665 32.9601 13.6881 39.4222 23.3923 37.6894Z" fill="#C4C4C4"/>
</mask>
<g mask="url(#mask3)">
<path d="M5.4444 30.3572C9.26866 21.3812 21.3321 18.1562 26.0061 18.127C24.0232 18.4291 19.11 20.0345 15.3203 24.0394C24.845 17.6849 33.3646 19.268 36.4338 20.8538L38.0949 22.4612C38.3522 21.9622 38.7441 21.3884 38.6105 19.5033C38.9043 21.4598 38.5492 22.3366 37.9647 23.4981C36.4869 20.9128 33.0577 20.9819 31.536 21.2921C23.975 22.6668 22.0415 30.2539 22.02 33.8756C21.9531 37.988 24.3307 45.1799 25.5279 48.2617L16.8913 48.7266C14.9981 43.455 13.9384 30.5397 22.724 22.442C10.4544 28.5922 9.69719 42.5311 8.50911 45.0249C7.25448 45.454 -7.75688 50.2937 5.4444 30.3572Z" fill="#99BFCB"/>
<path d="M32.8661 16.1237C32.9925 16.067 33.436 15.8565 33.9238 15.3927C34.8379 15.5712 35.7266 15.9226 35.7266 15.9226C34.1126 14.7855 31.8605 14.0395 29.3257 13.9116C29.3257 13.9116 30.2128 15.3872 32.8661 16.1237C32.866 16.125 32.8497 16.1389 32.8661 16.1237Z" fill="#99BECB"/>
<path fill-rule="evenodd" clip-rule="evenodd" d="M16.0343 23.5341C15.7944 23.6799 15.5528 23.8298 15.3096 23.9842L15.4173 23.9596C15.3837 23.9842 15.3506 24.0086 15.3181 24.0329L16.1244 24.1373L17.6362 23.4411C23.6439 21.9966 24.8384 21.3375 24.6203 21.1824L28.9344 20.3964C29.2302 20.3723 29.5321 20.3508 29.8399 20.3321C30.2624 20.3063 30.6592 20.289 31.0323 20.28L33.9272 20.7388L31.7962 20.8527L32.2203 21.1543C33.3916 20.9588 36.1529 21.1464 37.9273 23.4296C37.9458 23.4601 37.9644 23.4909 37.983 23.5218C37.9855 23.5187 37.9881 23.5155 37.9906 23.5124C37.9907 23.5125 37.9908 23.5126 37.9909 23.5127C37.9908 23.5126 37.9908 23.5124 37.9907 23.5123C39.765 21.3302 38.8463 18.8911 38.2421 18.2485C38.4712 18.8605 38.6772 20.3446 37.8276 21.6791C35.3315 19.4184 28.6427 16.9883 18.6363 22.0806C17.6365 22.5645 16.7545 23.063 16.0343 23.5341Z" fill="#9ABFCC"/>
</g>
</g>
</svg>
