<svg width="428" height="49" viewBox="0 0 428 49" fill="none" xmlns="http://www.w3.org/2000/svg">
<path d="M0.286699 37.9336H6.5267V22.0736H17.5507V16.1976H6.5267V7.40959H23.7907V1.53359H0.286699V37.9336ZM32.3906 7.72159C34.4186 7.72159 35.9786 6.10959 35.9786 4.08159C35.9786 2.10559 34.4186 0.493592 32.3906 0.493592C30.3626 0.493592 28.7506 2.10559 28.7506 4.08159C28.7506 6.10959 30.3626 7.72159 32.3906 7.72159ZM29.3226 37.9336H35.4066V11.3616H29.3226V37.9336ZM52.4915 48.3336C61.6435 47.6576 65.0235 44.0696 65.0235 35.2816V11.3616H58.9394V12.9736C57.6914 11.7256 55.7155 10.7376 52.9595 10.7376C46.4594 10.7376 41.9354 15.9376 41.9354 24.6216C41.9354 33.8776 46.6674 38.5576 52.9074 38.5576C55.2994 38.5576 57.3794 37.8816 58.9394 36.1656V37.6736C58.9394 41.2616 56.7554 42.9256 49.2674 43.4456L52.4915 48.3336ZM53.9475 32.7336C50.1514 32.7336 48.0194 29.5096 48.0194 24.6216C48.0194 19.3696 50.1514 16.5096 53.9475 16.5096C56.2874 16.5096 58.0035 17.7576 58.9394 19.1096V30.1336C57.8474 31.7976 56.1314 32.7336 53.9475 32.7336ZM72.8409 37.9336H78.9249V22.4896C78.9249 18.1216 81.2129 16.5096 84.3329 16.5096C87.3489 16.5096 89.2729 18.2776 89.2729 22.5936V37.9336H95.3569V21.6056C95.3569 13.4936 90.9889 10.7376 85.9449 10.7376C82.9289 10.7376 80.6409 11.7776 78.9249 13.8576V0.389591L72.8409 3.19759V37.9336ZM110.703 38.5576C112.887 38.5576 114.759 38.1416 116.267 37.3616L116.995 31.9016C115.591 32.6816 114.187 33.0976 112.835 33.0976C111.223 33.0976 110.599 32.0576 110.599 30.5496V16.6656H116.735V11.3616H110.599V0.389591L104.515 3.30159V11.3616H100.563V16.6656H104.515V31.7456C104.515 35.9576 106.335 38.5576 110.703 38.5576ZM136.228 37.9336H142.468V22.0736H153.492V16.1976H142.468V7.40959H159.732V1.53359H136.228V37.9336ZM173.998 38.5576C181.486 38.5576 186.218 33.4096 186.218 24.6736C186.218 15.9896 181.486 10.7376 173.998 10.7376C166.562 10.7376 161.83 15.9896 161.83 24.6736C161.83 33.4096 166.562 38.5576 173.998 38.5576ZM173.998 32.7336C170.306 32.7336 167.914 29.7176 167.914 24.6736C167.914 19.6296 170.306 16.5096 173.998 16.5096C177.794 16.5096 180.134 19.6296 180.134 24.6736C180.134 29.7176 177.794 32.7336 173.998 32.7336ZM192.735 37.9336H198.819V23.0616C198.819 18.0176 201.471 16.7176 203.811 16.7176C205.839 16.7176 207.243 17.3416 208.335 18.1216L209.219 12.5576C207.867 11.4136 206.255 10.7376 204.279 10.7376C201.627 10.7376 199.859 11.9336 198.819 14.1176V11.3616H192.735V37.9336ZM227.228 37.9336H233.468V22.0736H244.492V16.1976H233.468V7.40959H250.732V1.53359H227.228V37.9336ZM252.15 37.9336H258.234V23.0616C258.234 18.0176 260.886 16.7176 263.226 16.7176C265.254 16.7176 266.658 17.3416 267.75 18.1216L268.634 12.5576C267.282 11.4136 265.67 10.7376 263.694 10.7376C261.042 10.7376 259.274 11.9336 258.234 14.1176V11.3616H252.15V37.9336ZM283.942 38.5576C288.206 38.5576 291.326 36.8936 293.406 34.3976L289.558 30.4456C288.154 32.3176 286.282 33.2016 283.942 33.2016C280.77 33.2016 277.91 30.8616 277.702 26.9616H295.33C295.486 25.7656 295.538 24.3096 295.538 23.2176C295.538 14.6896 290.338 10.7376 283.942 10.7376C276.506 10.7376 271.67 15.9376 271.67 24.6216C271.67 33.3576 276.402 38.5576 283.942 38.5576ZM277.754 21.9176C278.066 17.7576 280.666 16.0936 283.942 16.0936C286.698 16.0936 289.246 17.8616 289.506 21.9176H277.754ZM312.735 38.5576C316.999 38.5576 320.119 36.8936 322.199 34.3976L318.351 30.4456C316.947 32.3176 315.075 33.2016 312.735 33.2016C309.563 33.2016 306.703 30.8616 306.495 26.9616H324.123C324.279 25.7656 324.331 24.3096 324.331 23.2176C324.331 14.6896 319.131 10.7376 312.735 10.7376C305.299 10.7376 300.463 15.9376 300.463 24.6216C300.463 33.3576 305.195 38.5576 312.735 38.5576ZM306.547 21.9176C306.859 17.7576 309.459 16.0936 312.735 16.0936C315.491 16.0936 318.039 17.8616 318.299 21.9176H306.547ZM340.28 38.5576C343.088 38.5576 345.012 37.6216 346.26 36.0096V37.9336H352.344V0.389591L346.26 3.14559V13.2336C345.012 11.7776 343.088 10.7376 340.28 10.7376C333.884 10.7376 329.256 15.9376 329.256 24.6216C329.256 33.4616 333.572 38.5576 340.28 38.5576ZM341.216 32.7336C337.472 32.7336 335.34 29.4576 335.34 24.6216C335.34 19.3696 337.472 16.5096 341.216 16.5096C343.764 16.5096 345.48 17.9136 346.26 19.0576V30.1856C345.168 31.8496 343.504 32.7336 341.216 32.7336ZM371.029 38.5576C378.517 38.5576 383.249 33.4096 383.249 24.6736C383.249 15.9896 378.517 10.7376 371.029 10.7376C363.593 10.7376 358.861 15.9896 358.861 24.6736C358.861 33.4096 363.593 38.5576 371.029 38.5576ZM371.029 32.7336C367.337 32.7336 364.945 29.7176 364.945 24.6736C364.945 19.6296 367.337 16.5096 371.029 16.5096C374.825 16.5096 377.165 19.6296 377.165 24.6736C377.165 29.7176 374.825 32.7336 371.029 32.7336ZM420.967 37.9336H427.051V20.9816C427.051 13.4936 422.839 10.7376 417.327 10.7376C413.895 10.7376 411.087 11.8816 409.319 14.4816C407.915 11.9336 405.523 10.7376 402.351 10.7376C399.595 10.7376 397.359 11.7776 395.851 13.8056V11.3616H389.767V37.9336H395.851V22.8016C395.851 18.5376 397.827 16.5096 400.843 16.5096C403.963 16.5096 405.367 18.5376 405.367 22.6976V37.9336H411.451V22.8016C411.451 18.5376 413.375 16.5096 416.443 16.5096C419.563 16.5096 420.967 18.5376 420.967 22.6976V37.9336Z" fill="white"/>
</svg>
