<svg width="430" height="430" viewBox="0 0 430 430" fill="none" xmlns="http://www.w3.org/2000/svg">
<mask id="mask0" mask-type="alpha" maskUnits="userSpaceOnUse" x="0" y="0" width="430" height="430">
<path d="M430 0H0V430H430V0Z" fill="white"/>
</mask>
<g mask="url(#mask0)">
<mask id="mask1" mask-type="alpha" maskUnits="userSpaceOnUse" x="6" y="6" width="409" height="409">
<path d="M241.525 383.271C337.125 366.201 400.787 274.863 383.716 179.262C366.646 83.6615 275.308 20.0004 179.707 37.0709C84.1065 54.1415 20.4453 145.479 37.5159 241.08C54.5864 336.68 145.924 400.342 241.525 383.271Z" fill="#C4C4C4"/>
</mask>
<g mask="url(#mask1)">
<path d="M21 127C-68.7896 159.766 -32.8329 223.719 -53.5 220.5L-166.72 212.018L-133.096 52.2505C-103.906 25.7797 -44.7924 -27.3989 -41.8649 -28.3468C-38.9374 -29.2947 70.2706 -64.1366 124.509 -81.439L356.305 -84.0321L443 -16.6043C428.18 23.2444 393.703 111.778 374.354 147.12C361.213 129.271 225.84 52.2505 21 127Z" fill="#BAD9E3"/>
</g>
<mask id="mask2" mask-type="alpha" maskUnits="userSpaceOnUse" x="6" y="6" width="409" height="409">
<path d="M241.525 383.271C337.125 366.201 400.787 274.863 383.716 179.262C366.646 83.6615 275.308 20.0004 179.707 37.0709C84.1065 54.1415 20.4453 145.479 37.5159 241.08C54.5864 336.68 145.924 400.342 241.525 383.271Z" fill="#C4C4C4"/>
</mask>
<g mask="url(#mask2)">
<path d="M234.371 290.581L202.828 443.685L263.815 470.608L590.852 384.122C585.362 330.183 511.996 271.042 510.216 268.335C508.436 265.628 439.077 182.543 419.054 157.129L418.081 194.035L420.138 205.552L416.081 225.183L410.303 232.157L371.92 216.863C352.308 216.944 311.74 217.453 306.371 218.844C301.001 220.235 256.133 267.248 234.371 290.581Z" fill="#BAD9E3"/>
</g>
<mask id="mask3" mask-type="alpha" maskUnits="userSpaceOnUse" x="-12" y="-13" width="446" height="446">
<path d="M244.344 399.058C348.664 380.431 418.131 280.763 399.503 176.443C380.876 72.1235 281.208 2.65622 176.888 21.2837C72.5685 39.9111 3.10125 139.579 21.7287 243.899C40.3561 348.219 140.024 417.686 244.344 399.058Z" fill="#C4C4C4"/>
</mask>
<g mask="url(#mask3)">
<path d="M51.4065 320.235C92.5173 223.743 222.199 189.074 272.445 188.76C251.129 192.008 198.312 209.266 157.573 252.319C259.963 184.008 351.549 201.026 384.543 218.074L402.399 235.353C405.165 229.989 409.378 223.821 407.942 203.556C411.101 224.588 407.283 234.014 401 246.5C385.113 218.708 348.25 219.451 331.891 222.785C250.611 237.563 229.826 319.125 229.594 358.058C228.875 402.266 254.434 479.579 267.304 512.709L174.461 517.706C154.109 461.036 142.717 322.197 237.162 235.147C105.264 301.261 97.124 451.104 84.3522 477.913C70.8649 482.526 -90.5072 534.552 51.4065 320.235Z" fill="#99BFCB"/>
<path d="M346.187 167.227C347.546 166.617 352.314 164.354 357.558 159.369C367.384 161.287 376.938 165.065 376.938 165.065C359.587 152.841 335.377 144.822 308.128 143.447C308.128 143.447 317.665 159.309 346.187 167.227C346.011 167.39 346.186 167.241 346.187 167.227Z" fill="#99BECB"/>
<path fill-rule="evenodd" clip-rule="evenodd" d="M165.245 246.891C162.666 248.458 160.069 250.07 157.454 251.729L158.612 251.465C158.251 251.729 157.895 251.992 157.546 252.253L166.213 253.375L182.465 245.891C247.048 230.363 259.889 223.277 257.544 221.61L303.921 213.161C307.101 212.902 310.346 212.67 313.655 212.469C318.197 212.192 322.462 212.006 326.473 211.909L357.594 216.841L334.685 218.066L339.244 221.308C351.836 219.206 381.52 221.223 400.595 245.767C400.793 246.095 400.993 246.426 401.193 246.759C401.22 246.725 401.248 246.691 401.275 246.658C401.276 246.659 401.277 246.66 401.278 246.661C401.277 246.66 401.277 246.658 401.276 246.656C420.35 223.199 410.474 196.979 403.979 190.071C406.442 196.65 408.656 212.604 399.523 226.95C372.69 202.647 300.785 176.523 193.216 231.266C182.468 236.468 172.987 241.826 165.245 246.891Z" fill="#9ABFCC"/>
</g>
</g>
</svg>
